<svg width="35" height="35" viewBox="0 0 35 35" fill="none" xmlns="http://www.w3.org/2000/svg">
<path d="M13.3581 15.7068C13.1359 15.4163 12.8462 15.1824 12.4865 15.0046C12.1268 14.8267 11.688 14.7373 11.1683 14.7373H8.00439V20.9952H10.7908C11.3345 20.9952 11.8084 20.9222 12.2107 20.7754C12.6139 20.6309 12.9471 20.4204 13.2097 20.1485C13.473 19.8758 13.668 19.548 13.7969 19.1596C13.9251 18.7712 13.9896 18.337 13.9896 17.8577C13.9896 17.467 13.9399 17.0817 13.8404 16.7057C13.741 16.3282 13.5802 15.9957 13.3581 15.7068ZM12.0134 18.3222C11.9816 18.5032 11.9171 18.6733 11.8208 18.8295C11.7245 18.9872 11.5854 19.1208 11.4044 19.2288C11.2234 19.3383 10.9834 19.3903 10.6859 19.3903H9.9324V16.3414H10.5453C10.8956 16.3414 11.1722 16.3997 11.3734 16.517C11.5745 16.6343 11.7268 16.7733 11.8286 16.938C11.9311 17.1019 11.9963 17.2658 12.0212 17.4328C12.0476 17.5998 12.0616 17.7327 12.0616 17.8321C12.0616 17.9773 12.0453 18.1412 12.0134 18.3222Z" fill="black"/>
<path d="M20.1105 15.5141C19.8332 15.2236 19.4976 14.9968 19.1061 14.8344C18.7146 14.6705 18.2819 14.5882 17.8104 14.5882C17.3373 14.5882 16.9047 14.6705 16.5124 14.8344C16.1217 14.9968 15.7869 15.2236 15.5095 15.5141C15.2322 15.8015 15.0171 16.1464 14.8656 16.5473C14.7141 16.9473 14.6372 17.3877 14.6372 17.8647C14.6372 18.3448 14.7141 18.786 14.8656 19.1852C15.0171 19.5861 15.2322 19.9286 15.5095 20.2184C15.7869 20.5081 16.1217 20.7357 16.5124 20.8965C16.9047 21.062 17.3373 21.142 17.8104 21.142C18.2827 21.142 18.7154 21.0612 19.1061 20.8965C19.4976 20.7357 19.8332 20.5081 20.1105 20.2184C20.3863 19.9286 20.6022 19.5861 20.7537 19.1852C20.9036 18.7844 20.9813 18.3448 20.9813 17.8647C20.9813 17.3877 20.9036 16.9465 20.7537 16.5473C20.6014 16.1472 20.3863 15.8015 20.1105 15.5141ZM18.9267 18.7246C18.842 18.946 18.7387 19.1208 18.6159 19.2451C18.4932 19.3709 18.3596 19.4587 18.2128 19.5076C18.0668 19.5573 17.9331 19.5845 17.8096 19.5845C17.6869 19.5845 17.5517 19.5589 17.4057 19.5076C17.2597 19.4595 17.1253 19.3709 17.0018 19.2451C16.8798 19.1208 16.7757 18.946 16.6918 18.7246C16.6072 18.5032 16.5644 18.2166 16.5644 17.8655C16.5644 17.5167 16.6072 17.2301 16.6918 17.0079C16.7757 16.7865 16.8798 16.6125 17.0018 16.4874C17.1245 16.3616 17.2597 16.2738 17.4057 16.2233C17.5517 16.1744 17.6861 16.1488 17.8096 16.1488C17.9316 16.1488 18.066 16.1744 18.2128 16.2233C18.3596 16.273 18.4932 16.3616 18.6159 16.4874C18.7387 16.6125 18.842 16.7865 18.9267 17.0079C19.0098 17.2301 19.0541 17.5167 19.0541 17.8655C19.0541 18.2166 19.0106 18.5032 18.9267 18.7246Z" fill="black"/>
<path d="M22.4763 15.4908C22.199 15.7775 21.9861 16.1223 21.8362 16.5247C21.6894 16.9287 21.6133 17.3745 21.6133 17.8655C21.6133 18.3277 21.6832 18.758 21.8238 19.1588C21.9652 19.5589 22.1695 19.9053 22.4413 20.1982C22.7148 20.4903 23.0449 20.7194 23.4364 20.8903C23.8279 21.0604 24.2769 21.1435 24.7849 21.1435C25.2401 21.1435 25.6464 21.0674 26.0029 20.9152C26.3595 20.7645 26.6586 20.5641 26.8994 20.3163C27.1417 20.0677 27.3274 19.7873 27.4517 19.4789C27.5775 19.1697 27.6412 18.8567 27.6412 18.5397H25.7474C25.7171 18.6865 25.6775 18.8233 25.6293 18.9522C25.5796 19.0796 25.5159 19.1922 25.4367 19.2862C25.3559 19.3787 25.2603 19.4525 25.1469 19.5045C25.0335 19.5566 24.8952 19.5845 24.7313 19.5845C24.5037 19.5845 24.3126 19.5356 24.1627 19.4354C24.0097 19.3367 23.8893 19.2039 23.7984 19.0415C23.7075 18.8776 23.6423 18.6935 23.6011 18.4892C23.5584 18.2834 23.5405 18.0775 23.5405 17.8655C23.5405 17.6557 23.5584 17.4499 23.6011 17.244C23.6423 17.0397 23.7075 16.8556 23.7984 16.6925C23.8893 16.5278 24.0089 16.3966 24.1627 16.2979C24.3126 16.1977 24.5037 16.1488 24.7313 16.1488C24.9302 16.1488 25.0925 16.1876 25.2184 16.2622C25.3427 16.3383 25.4444 16.4261 25.5206 16.5247C25.5967 16.6249 25.6479 16.7267 25.6782 16.8277C25.707 16.9302 25.7264 17.0094 25.7388 17.0693H27.614C27.5332 16.2793 27.2575 15.671 26.786 15.2415C26.3168 14.8119 25.6479 14.5959 24.7849 14.5882C24.2994 14.5882 23.8621 14.6682 23.4753 14.8251C23.0861 14.9836 22.7536 15.2057 22.4763 15.4908Z" fill="black"/>
<path d="M25.9684 0H4.02246V35H30.9764V4.85574L25.9684 0ZM28.6461 32.6688H6.35284V2.33038H24.7683V6.02792H28.6461V32.6688Z" fill="black"/>
</svg>
