<svg width="25" height="19" viewBox="0 0 25 19" fill="none" xmlns="http://www.w3.org/2000/svg">
<path d="M16.5719 9.62808L25 14.9562V4.07495L16.5719 9.62808Z" fill="white"/>
<path d="M0 4.07495V14.9562L8.42813 9.62808L0 4.07495Z" fill="white"/>
<path d="M23.4375 0.90625H1.5625C0.782812 0.90625 0.164062 1.4875 0.046875 2.23594L12.5 10.4406L24.9531 2.23594C24.8359 1.4875 24.2172 0.90625 23.4375 0.90625Z" fill="white"/>
<path d="M15.1406 10.5719L12.9297 12.0281C12.7984 12.1141 12.65 12.1562 12.5 12.1562C12.35 12.1562 12.2016 12.1141 12.0703 12.0281L9.85937 10.5703L0.0499878 16.775C0.1703 17.5172 0.785926 18.0938 1.56249 18.0938H23.4375C24.2141 18.0938 24.8297 17.5172 24.95 16.775L15.1406 10.5719Z" fill="white"/>
</svg>
