<svg width="35" height="35" viewBox="0 0 35 35" fill="none" xmlns="http://www.w3.org/2000/svg">
<path d="M17.5 35C27.1498 35 35 27.1498 35 17.5C35 7.85021 27.1498 0 17.5 0C7.85021 0 0 7.85021 0 17.5C0 27.1498 7.85021 35 17.5 35ZM17.5 2.1875C25.9438 2.1875 32.8125 9.05625 32.8125 17.5C32.8125 25.9438 25.9438 32.8125 17.5 32.8125C9.05625 32.8125 2.1875 25.9438 2.1875 17.5C2.1875 9.05625 9.05625 2.1875 17.5 2.1875Z" fill="white"/>
<path d="M11.5148 20.6427L13.8014 19.6496L13.1598 20.2927C12.9541 20.4983 12.8389 20.7768 12.8389 21.0656V25.3458C12.8389 26.3258 14.0231 26.8012 14.7056 26.1187L17.001 23.8233L22.0031 26.3243C22.6506 26.6481 23.4337 26.2646 23.5679 25.5412L26.4219 9.84809C26.5721 9.00372 25.7408 8.32122 24.946 8.6333L6.40186 15.8914C5.57061 16.2152 5.45977 17.3527 6.21227 17.8325L10.491 20.5625C10.7973 20.7579 11.1837 20.7885 11.5148 20.6427ZM23.9194 11.3866L21.6779 23.7168L17.2737 21.5162C16.8479 21.3033 16.3404 21.3923 16.0123 21.7218L15.0264 22.7077V21.5221L19.4116 17.1368C20.2619 16.2866 19.3052 14.8837 18.2027 15.3606L11.1779 18.4085L9.20331 17.1485L23.9194 11.3866Z" fill="white"/>
</svg>
